<svg xmlns="http://www.w3.org/2000/svg" xmlns:xlink="http://www.w3.org/1999/xlink" viewBox="0 0 139.49 141.6"><defs><style>.cls-1{fill:#baccce;}.cls-2{clip-path:url(#clip-path);}.cls-3{fill:#146051;}.cls-4{fill:#7daaa3;}.cls-5{fill:#825636;}.cls-6{fill:#edbb9f;}.cls-7{opacity:0.8;}.cls-8{fill:#967362;}.cls-9{fill:#d6a694;}.cls-10{fill:#302922;}.cls-11{fill:#e06c5c;}.cls-12{fill:#161f29;}</style><clipPath id="clip-path"><circle class="cls-1" cx="69.75" cy="69.75" r="69.75" transform="translate(-13.55 122.57) rotate(-77.38)"/></clipPath></defs><g id="Capa_2" data-name="Capa 2"><g id="OBJECTS"><circle class="cls-1" cx="69.75" cy="69.75" r="69.75" transform="translate(-13.55 122.57) rotate(-77.38)"/><g class="cls-2"><path class="cls-3" d="M58,87.38s-23.85,4.33-32.73,16.93c-6.78,9.63-11,37.29-11,37.29H118.53s-4.44-33.83-12.86-41.82-21.2-9.9-21.2-9.9Z"/><path class="cls-4" d="M53.41,88.44s-.69,12.62,4.54,17.61,15.87-2.36,15.87-2.36,4.67,4.33,9.82,3,3.22-12.54,0-16.91Z"/><path class="cls-5" d="M80.19,89.88,59.41,88.6c-8,0-19.25.26-21.56-14.55-.56-3.61,1.68-15.84,3.85-19.65,4.74-8.33-.29-8.21,3.89-21.19,4.84-15,22.46-10.16,22.46-10.16s29.22,8.18,31.19,16.58c3,12.93-4.29,9.92,0,19.51,2.15,4.8,3.36,18.36-2.63,25.38C92.25,89.62,85.52,89.88,80.19,89.88Z"/><path class="cls-6" d="M81.75,92.77c-5.19,21-25.59,1.76-26.37-5.39,3.22-10,2.15-20.79,2.15-20.79L82,75.18l-.18,2.14a96.64,96.64,0,0,0-.43,10.22A50.32,50.32,0,0,0,81.75,92.77Z"/><g class="cls-7"><path class="cls-8" d="M81.34,87.54C68.53,84.76,60.16,71.66,60.16,71.66l21.61,5.66A96.64,96.64,0,0,0,81.34,87.54Z"/></g><path class="cls-9" d="M87.22,57.16s1.85-6,6.74-4.67S99.19,70,89.89,69.54Z"/><path class="cls-6" d="M94.48,56.08c0,.53,0,1.1-.08,1.7s-.13,1.37-.22,2.1-.26,1.72-.43,2.62c-.1.54-.21,1.09-.34,1.65-1.88,8.65-5.52,12.62-9.69,14.64-6.86,3.34-23.86-3.86-26.51-10.26-1.92-4.63-1.89-2.72-2.4-15.19S59.41,34,59.41,34c6.93-7.9,19.31-6.71,27.35-1.49S94.55,47.44,94.48,56.08Z"/><path class="cls-10" d="M83.64,67.55a7.82,7.82,0,0,1-2.08.06c-4-.37-7.1-3.56-7.23-3.69a.52.52,0,0,1,0-.73.53.53,0,0,1,.73,0s2.92,3,6.56,3.38,4.88-1.92,4.89-1.94a.52.52,0,0,1,.7-.21.5.5,0,0,1,.21.69A5.32,5.32,0,0,1,83.64,67.55Z"/><path class="cls-11" d="M84.56,70.5c.25-.17.39-.3.42-.32a.68.68,0,0,0,0-1,.67.67,0,0,0-1,0,4.4,4.4,0,0,1-4.27.83.68.68,0,0,0-.48,1.28A5.65,5.65,0,0,0,84.56,70.5Z"/><path class="cls-12" d="M81.53,62.21a4.92,4.92,0,0,1-.94,0,.58.58,0,1,1,.12-1.16,3.42,3.42,0,0,0,2.64-.85c-1.82-2.47-2.8-8.64-2.84-8.92a.58.58,0,0,1,1.15-.18c.3,1.92,1.41,7.23,2.9,8.73a.58.58,0,0,1,0,.77A4.8,4.8,0,0,1,81.53,62.21Z"/><path class="cls-5" d="M76.58,44.68a6.72,6.72,0,0,0-6.21.61c-1.64,1.16-.68,2.88,1.45,2a7.24,7.24,0,0,1,4-.65A1.07,1.07,0,0,0,76.58,44.68Z"/><path class="cls-5" d="M86.14,45.17a6.71,6.71,0,0,1,6.17,1c1.57,1.25.52,2.9-1.56,1.95a7.3,7.3,0,0,0-4-.87A1.08,1.08,0,0,1,86.14,45.17Z"/><path class="cls-6" d="M58,51.75s-2.92-5-8-2.76-2.77,19.9,7.29,17.9Z"/><path class="cls-5" d="M58.82,42.22s2.83,5.58,1.3,8.81a15.71,15.71,0,0,0-1.21,7.06s-5.8-4.72-4.37-12.22S58.82,42.22,58.82,42.22Z"/><path class="cls-12" d="M55.85,60a.49.49,0,0,1-.35.58h-.1a.46.46,0,0,1-.48-.35A9.92,9.92,0,0,0,53.25,57c-1,.88-1.77,1.7-1.78,1.71a.53.53,0,0,1-.33.15.51.51,0,0,1-.35-.13.48.48,0,0,1,0-.68s.82-.85,1.83-1.76a5.92,5.92,0,0,0-3-1.6.48.48,0,1,1,.18-.94C54.4,54.67,55.79,59.79,55.85,60Z"/><path class="cls-5" d="M71.92,17.72s17.24-1,24.55,9.41A18.16,18.16,0,0,1,97.66,47S87,49.09,73.44,34.4c0,0-1.28,12-11.28,12.58s-7.64-8.79-7.64-8.79S50.7,20.49,71.92,17.72Z"/><path class="cls-12" d="M73.82,54.36c0,1.37-.67,2.49-1.48,2.49s-1.48-1.12-1.48-2.49.66-2.48,1.48-2.48S73.82,53,73.82,54.36Z"/><path class="cls-12" d="M88.7,55.1c0,1.37-.66,2.48-1.48,2.48s-1.47-1.11-1.47-2.48.66-2.48,1.47-2.48S88.7,53.73,88.7,55.1Z"/></g></g></g></svg>